# xmcd
#
# Track frame offsets:
#	150
#	11099
#	22072
#	33899
#	44888
#	56713
#	69618
#	81693
#	94493
#	105960
#	118779
#	132484
#	145850
#	158772
#	172057
#	184755
#
# Disc length: 2628
#
# Revision: 2
# Processed by: cddbd v1.5.1PL0 Copyright (c) Steve Scherf et al.
# Submitted via: EasyCDDAExtractor 7.0.6.1
# Normalized: r1:DSETVAR1
#
DISCID=ee0a4210
DTITLE=Various Artist - Country Superstars  Gene Autry-Tex Ritter
DYEAR=1900
DGENRE=Country
TTITLE0=Gene Autry - I'm Thinking Tonight Of My Blue Eyes
TTITLE1=Gene Autry - Red River Valley
TTITLE2=Gene Autry - Back In The Saddle Again
TTITLE3=Gene Autry - You Are My Sunshine
TTITLE4=Gene Autry - Blueberry Hill
TTITLE5=Gene Autry - Lonely River
TTITLE6=Gene Autry - El Rancho Grande
TTITLE7=Gene Autry - Goodbye Little Darlin' Goodbye
TTITLE8=Tex Ritter - Have I Told You Lately That I Love You
TTITLE9=Tex Ritter - I'm Wastin' My Tears On You
TTITLE10=Tex Ritter - There's A New Moon Over My Shoulder
TTITLE11=Tex Ritter - Jealous Heart
TTITLE12=Tex Ritter - Trouble In Mind
TTITLE13=Tex Ritter - When You Leave Don't Slam The Door
TTITLE14=Tex Ritter - Jingle Jangle Jingle
TTITLE15=Tex Ritter - You Two-Timed Me One Time Too Often
EXTD=
EXTT0=
EXTT1=
EXTT2=
EXTT3=
EXTT4=
EXTT5=
EXTT6=
EXTT7=
EXTT8=
EXTT9=
EXTT10=
EXTT11=
EXTT12=
EXTT13=
EXTT14=
EXTT15=
PLAYORDER=
